Patient4_TMGait_0pt5_02_left_04_GRF.mot
version=1
nRows=39
nColumns=19
inDegrees=no
endheader
time	F1x	F1y	F1z	M1x	M1y	M1z	F2x	F2y	F2z	M2x	M2y	M2z	EC1x	EC1y	EC1z	EC2x	EC2y	EC2z
4.44	-12.3617	-6.9979	5.7341	-0.1037	-8.0214	-8.687	-17.523	733.4222	-74.7617	275.1826	69.7483	612.5739	-0.0592	0.0182	-0.0073	-0.0462	0.0165	0.9585
4.4532	-8.4264	-4.2205	3.9339	-0.30102	-5.507	-5.4612	-17.2747	736.7643	-68.2022	274.9209	63.8504	612.4134	-0.0592	0.0182	-0.0073	-0.0462	0.0165	0.9585
4.4664	-5.0931	-1.8479	2.3722	-0.46151	-3.3498	-2.7092	-16.4273	741.5531	-62.4121	275.4454	58.3326	612.7505	-0.0592	0.0182	-0.0073	-0.0462	0.0165	0.9585
4.4796	-2.556	-0.017237	1.1608	-0.58406	-1.6966	-0.57885	-15.0968	747.867	-57.8065	276.8617	53.6136	613.8007	-0.0592	0.0182	-0.0073	-0.0462	0.0165	0.9585
4.4929	-0.80961	1.2828	0.31046	-0.6749	-0.552	0.95046	-13.5266	755.5622	-54.4722	279.0974	49.8697	615.6444	-0.0592	0.0182	-0.0073	-0.0462	0.0165	0.9585
4.5061	0.25184	2.13	-0.22482	-0.74085	0.15356	1.967	-11.9721	764.2544	-52.2897	281.9438	47.0977	618.1701	-0.0592	0.0182	-0.0073	-0.0462	0.0165	0.9585
4.5193	0.7809	2.6195	-0.5114	-0.78476	0.51722	2.564	-10.631	773.3791	-51.0531	285.1101	45.1938	621.1063	-0.0592	0.0182	-0.0073	-0.0462	0.0165	0.9585
4.5325	0.9296	2.8299	-0.6238	-0.80319	0.64177	2.8326	-9.6032	782.263	-50.5096	288.2699	43.9769	624.0395	-0.0592	0.0182	-0.0073	-0.0462	0.0165	0.9585
4.5457	0.82882	2.8054	-0.62044	-0.78579	0.60716	2.8337	-8.8972	790.2078	-50.4255	291.1023	43.2488	626.4827	-0.0592	0.0182	-0.0073	-0.0462	0.0165	0.9585
4.5589	0.58315	2.5658	-0.55395	-0.71632	0.47982	2.5957	-8.433	796.5399	-50.5914	293.316	42.8023	627.9227	-0.0592	0.0182	-0.0073	-0.0462	0.0165	0.9585
4.5721	0.26754	2.0979	-0.4547	-0.57038	0.30171	2.1216	-8.086	800.665	-50.8513	294.6674	42.4623	627.8897	-0.0592	0.0182	-0.0073	-0.0462	0.0165	0.9585
4.5854	-0.049068	1.3623	-0.3522	-0.3195	0.11471	1.3915	-7.7097	802.1454	-51.0732	294.9882	42.0699	626.0103	-0.0592	0.0182	-0.0073	-0.0462	0.0165	0.9585
4.5986	-0.31616	0.31934	-0.26038	0.061587	-0.051806	0.39272	-7.1593	800.7686	-51.16	294.206	41.5022	622.0683	-0.0592	0.0182	-0.0073	-0.0462	0.0165	0.9585
4.6118	-0.47244	-1.0551	-0.19418	0.58385	-0.16067	-0.89206	-6.316	796.5462	-51.0496	292.3366	40.6752	616.0143	-0.0592	0.0182	-0.0073	-0.0462	0.0165	0.9585
4.625	-0.45397	-2.7234	-0.15823	1.2286	-0.17967	-2.4332	-5.0937	789.7059	-50.7289	289.4755	39.5568	607.9682	-0.0592	0.0182	-0.0073	-0.0462	0.0165	0.9585
4.6382	-0.16891	-4.5323	-0.16515	1.9305	-0.057049	-4.1067	-3.464	780.678	-50.2297	285.7911	38.1663	598.2122	-0.0592	0.0182	-0.0073	-0.0462	0.0165	0.9585
4.6514	0.48908	-6.1539	-0.22548	2.5563	0.26503	-5.6281	-1.4325	770.0482	-49.6434	281.5053	36.5789	587.1505	-0.0592	0.0182	-0.0073	-0.0462	0.0165	0.9585
4.6646	1.6316	-7.0165	-0.36191	2.8785	0.85257	-6.4867	0.97728	758.5059	-49.0895	276.8743	34.8916	575.2774	-0.0592	0.0182	-0.0073	-0.0462	0.0165	0.9585
4.6779	3.3611	-6.2617	-0.58578	2.5553	1.7558	-5.9035	3.7324	746.7768	-48.6982	272.163	33.2066	563.1291	-0.0592	0.0182	-0.0073	-0.0462	0.0165	0.9585
4.6911	5.7162	-2.7185	-0.90319	1.1196	2.9948	-2.8008	6.8038	735.4975	-48.5747	267.6037	31.6067	551.173	-0.0592	0.0182	-0.0073	-0.0462	0.0165	0.9585
4.7043	8.615	5.0643	-1.3032	-2.0056	4.5214	4.1625	10.1529	725.0747	-48.7726	263.3466	30.1444	539.7319	-0.0592	0.0182	-0.0073	-0.0462	0.0165	0.9585
4.7175	11.7632	18.6825	-1.7482	-7.4514	6.1757	16.4801	13.7303	715.547	-49.2627	259.4119	28.8159	528.8818	-0.0592	0.0182	-0.0073	-0.0462	0.0165	0.9585
4.7307	14.5666	39.5839	-2.1565	-15.7877	7.6344	35.5212	17.4782	706.5268	-49.9296	255.6697	27.5634	518.3939	-0.0592	0.0182	-0.0073	-0.0462	0.0165	0.9585
4.7439	16.0255	68.5841	-2.3799	-27.3289	8.3579	62.0956	21.2948	697.2315	-50.5802	251.8527	26.29	507.7772	-0.0592	0.0182	-0.0073	-0.0462	0.0165	0.9585
4.7571	14.9081	105.374	-2.2096	-41.9356	7.6661	96.0043	25.0389	686.5773	-50.9921	247.5874	24.9011	496.339	-0.0592	0.0182	-0.0073	-0.0462	0.0165	0.9585
4.7704	10.614	148.4201	-1.366	-58.9751	5.073	135.9189	28.527	673.3299	-50.9519	242.4459	23.3243	483.2851	-0.0592	0.0182	-0.0073	-0.0462	0.0165	0.9585
4.7836	3.941	194.9488	0.44135	-77.309	0.63079	179.2756	31.5462	656.2867	-50.2963	236.0085	21.5318	467.8474	-0.0592	0.0182	-0.0073	-0.0462	0.0165	0.9585
4.7968	-3.7332	240.2484	3.5087	-95.0536	-5.3714	221.557	33.8879	634.4274	-48.9423	227.9185	19.5522	449.3813	-0.0592	0.0182	-0.0073	-0.0462	0.0165	0.9585
4.81	-10.8378	279.1645	7.6592	-110.2058	-12.1159	257.7331	35.3772	607.1324	-46.8893	217.9568	17.4633	427.5096	-0.0592	0.0182	-0.0073	-0.0462	0.0165	0.9585
4.8232	-16.4463	309.4786	12.2838	-121.9287	-18.6281	285.5866	35.9319	574.4323	-44.2253	206.1268	15.3684	402.2829	-0.0592	0.0182	-0.0073	-0.0462	0.0165	0.9585
4.8364	-20.4558	332.8097	16.8347	-130.8928	-24.3508	306.5548	35.5888	537.0394	-41.148	192.6656	13.3981	374.2124	-0.0592	0.0182	-0.0073	-0.0462	0.0165	0.9585
4.8496	-23.1759	352.8474	20.9146	-138.5804	-29.0471	324.0525	34.5075	496.0691	-37.8648	177.9553	11.6352	344.0727	-0.0592	0.0182	-0.0073	-0.0462	0.0165	0.9585
4.8629	-24.8921	373.3415	24.3225	-146.4831	-32.6706	341.5147	32.8989	452.7197	-34.4854	162.4127	10.0665	312.6823	-0.0592	0.0182	-0.0073	-0.0462	0.0165	0.9585
4.8761	-25.8039	396.9657	27.0873	-155.6454	-35.3526	361.4051	30.9336	408.0594	-31.0203	146.4122	8.6226	280.7628	-0.0592	0.0182	-0.0073	-0.0462	0.0165	0.9585
4.8893	-26.0459	425.0557	29.4198	-166.5605	-37.3574	384.9523	28.7088	362.9497	-27.4637	130.2564	7.2504	248.878	-0.0592	0.0182	-0.0073	-0.0462	0.0165	0.9585
4.9025	-25.7764	457.7873	31.6798	-179.2385	-39.0777	412.3539	26.2245	318.0705	-23.8626	114.1823	5.9624	217.4752	-0.0592	0.0182	-0.0073	-0.0462	0.0165	0.9585
4.9157	-25.1787	494.3614	34.2685	-193.3049	-40.9423	442.9495	23.4249	273.9858	-20.3192	98.3869	4.8259	186.909	-0.0592	0.0182	-0.0073	-0.0462	0.0165	0.9585
4.9289	-24.4811	533.4788	37.5245	-208.203	-43.338	475.623	20.2554	231.2928	-16.9751	83.0775	3.9362	157.5541	-0.0592	0.0182	-0.0073	-0.0462	0.0165	0.9585
4.9421	-23.9252	573.8721	41.5529	-223.4166	-46.4365	509.2694	16.7512	190.7061	-13.972	68.5068	3.3619	129.84	-0.0592	0.0182	-0.0073	-0.0462	0.0165	0.9585
